<svg width="17" height="20" viewBox="0 0 17 20" fill="none" xmlns="http://www.w3.org/2000/svg">
<path d="M5.63623 20C2.55157 19.9829 0 13.9066 0 10.8121C0 5.75724 3.92965 4.6506 5.4441 4.6506C6.12661 4.6506 6.85538 4.90923 7.49817 5.1381C7.94766 5.29775 8.41254 5.46255 8.67109 5.46255C8.82585 5.46255 9.19054 5.32236 9.51252 5.19935C10.1992 4.93556 11.0537 4.60771 12.0487 4.60771H12.0546C12.7976 4.60771 15.0503 4.76505 16.4047 6.72771L16.7219 7.18775L16.2653 7.52021C15.6131 7.99513 14.4229 8.86146 14.4229 10.5775C14.4229 12.61 15.7708 13.3916 16.4183 13.7676C16.7041 13.9335 17 14.1046 17 14.4788C17 14.7232 14.9791 19.9697 12.0445 19.9697C11.3264 19.9697 10.8188 19.7614 10.3711 19.5777C9.91809 19.3918 9.52729 19.2316 8.88155 19.2316C8.55422 19.2316 8.14031 19.3809 7.70211 19.5394C7.10328 19.7551 6.42547 20 5.65638 20H5.63623Z" fill="#F5F5F5"/>
<path d="M12.3596 0C12.436 2.65922 10.4652 4.50407 8.49672 4.38837C8.17235 2.26622 10.465 0 12.3596 0Z" fill="#F5F5F5"/>
</svg>
